<svg xmlns="http://www.w3.org/2000/svg" xmlns:xlink="http://www.w3.org/1999/xlink" width="1000" zoomAndPan="magnify" viewBox="0 0 750 749.999995" height="1000" preserveAspectRatio="xMidYMid meet" version="1.0"><path fill="#ff3b30" d="M 587.410156 119.453125 L 588.191406 119.453125 L 596.960938 120.148438 C 598.695312 120.382812 600.488281 120.527344 602.34375 120.585938 C 603.847656 120.585938 605.292969 120.757812 606.683594 121.105469 L 611.109375 121.714844 L 612.0625 121.714844 L 616.925781 122.320312 L 623 123.191406 L 623.695312 123.191406 C 625.199219 123.480469 626.703125 123.882812 628.210938 124.40625 L 628.210938 124.753906 L 626.125 124.753906 L 624.214844 124.578125 L 620.570312 124.320312 L 619.875 124.320312 C 602.226562 123.277344 584.574219 123.683594 566.925781 125.535156 L 563.972656 125.796875 C 559.632812 126.257812 555.292969 126.839844 550.953125 127.53125 L 548.089844 127.878906 C 542.011719 128.75 535.9375 129.617188 529.859375 130.921875 L 526.128906 131.617188 C 517.15625 133.351562 508.246094 135.320312 499.390625 137.523438 L 496.699219 138.214844 L 495.746094 138.476562 L 494.007812 138.910156 C 492.101562 139.316406 490.246094 139.808594 488.453125 140.386719 L 487.671875 140.5625 C 482.917969 141.851562 478.199219 143.269531 473.523438 144.816406 C 469.644531 145.917969 465.828125 147.132812 462.066406 148.464844 L 459.199219 149.335938 C 458.96875 149.335938 458.765625 149.421875 458.59375 149.59375 L 454.945312 150.726562 C 453.441406 151.128906 451.96875 151.652344 450.519531 152.289062 L 445.570312 154.027344 C 442.101562 155.242188 438.6875 156.542969 435.328125 157.933594 L 431.597656 159.410156 L 430.816406 159.757812 L 425.953125 161.667969 L 413.800781 166.707031 L 412.761719 167.140625 L 410.851562 168.011719 L 408.507812 169.050781 L 402.082031 171.917969 L 397.828125 173.828125 L 392.273438 176.4375 L 388.628906 178.171875 C 384.867188 179.910156 381.132812 181.761719 377.429688 183.730469 L 363.628906 190.769531 L 361.023438 192.246094 L 350.433594 198.0625 L 347.308594 199.800781 L 332.726562 208.3125 L 329.773438 210.050781 L 328.90625 210.570312 C 327.171875 211.554688 325.492188 212.597656 323.871094 213.699219 L 321.527344 215.175781 L 320.574219 215.785156 L 318.835938 216.824219 C 315.019531 219.140625 311.3125 221.546875 307.726562 224.035156 L 304.773438 226.035156 L 304.339844 226.292969 L 303.210938 227.074219 L 298.871094 230.027344 L 295.398438 232.289062 L 287.585938 237.671875 L 284.984375 239.582031 L 279.515625 243.578125 L 275.433594 246.53125 C 272.347656 248.75 269.339844 251.066406 266.40625 253.480469 L 263.28125 255.828125 L 256.078125 261.558594 L 254.339844 262.949219 L 253.648438 263.558594 L 252.171875 264.773438 L 246.441406 269.636719 L 242.796875 272.765625 L 240.191406 275.023438 L 239.671875 275.457031 L 238.628906 276.324219 C 237.820312 277.136719 236.980469 277.714844 236.113281 278.0625 L 236.113281 278.671875 L 234.722656 279.800781 L 231.164062 283.015625 C 229.710938 284.519531 228.175781 285.9375 226.5625 287.269531 C 225.867188 287.847656 225.203125 288.515625 224.566406 289.269531 C 223.871094 290.078125 223.121094 290.800781 222.308594 291.441406 C 220.886719 292.65625 219.585938 293.988281 218.402344 295.433594 C 217.824219 296.070312 217.160156 296.652344 216.40625 297.171875 L 215.886719 297.953125 C 215.277344 298.648438 215.277344 298.648438 214.585938 299.171875 C 213.773438 299.863281 213.023438 300.648438 212.328125 301.515625 L 210.589844 303.253906 L 207.464844 306.726562 L 206.164062 308.289062 L 204.6875 309.941406 L 202.777344 312.199219 C 200.261719 315 197.859375 317.894531 195.574219 320.886719 L 189.238281 329.3125 L 188.542969 330.179688 C 186.574219 333.074219 184.695312 335.96875 182.902344 338.867188 L 181.859375 340.515625 L 179.082031 344.945312 L 178.648438 345.726562 C 177.835938 347 177.085938 348.363281 176.390625 349.808594 L 174.132812 354.152344 C 172.238281 357.558594 170.621094 361.09375 169.273438 364.75 C 168.460938 366.601562 167.769531 368.515625 167.1875 370.484375 L 166.667969 371.871094 C 166.261719 373.03125 165.945312 374.246094 165.714844 375.519531 L 164.933594 378.300781 C 164.101562 381.191406 163.492188 384.125 163.109375 387.105469 C 162.726562 390.089844 162.574219 393.082031 162.648438 396.085938 C 162.71875 399.09375 163.019531 402.074219 163.550781 405.035156 C 164.078125 407.992188 164.828125 410.894531 165.800781 413.738281 C 167.417969 418.34375 169.644531 422.628906 172.484375 426.59375 L 172.917969 427.289062 C 173.613281 428.332031 174.421875 429.257812 175.347656 430.070312 L 176.21875 431.199219 L 179.6875 434.585938 C 180.730469 435.542969 180.730469 435.542969 181.425781 435.890625 L 181.425781 436.496094 L 181.945312 436.757812 L 184.289062 438.234375 L 184.898438 438.667969 C 187.992188 440.980469 191.289062 442.949219 194.792969 444.574219 C 196.183594 445.328125 197.628906 445.90625 199.132812 446.3125 L 200.871094 447.09375 C 204.921875 448.65625 209.058594 449.933594 213.28125 450.917969 L 213.28125 451.523438 C 202.824219 451.691406 192.484375 450.660156 182.265625 448.429688 C 172.046875 446.199219 162.21875 442.832031 152.78125 438.320312 L 150.871094 437.453125 C 144.714844 434.570312 138.953125 431.039062 133.59375 426.855469 L 132.988281 426.421875 L 131.6875 425.464844 L 130.210938 424.335938 L 130.210938 423.730469 L 129.6875 423.46875 C 125.730469 420.828125 122.429688 417.527344 119.792969 413.566406 L 118.925781 412.609375 C 116.117188 409.136719 113.714844 405.402344 111.722656 401.40625 L 111.285156 400.625 C 108.222656 394.574219 106.140625 388.207031 105.035156 381.515625 L 104.863281 380.296875 C 103.734375 371.113281 104.371094 362.050781 106.773438 353.109375 L 106.945312 352.503906 L 107.902344 349.027344 L 108.160156 348.160156 L 109.03125 345.554688 L 109.378906 344.683594 C 110.113281 342.167969 111.066406 339.734375 112.242188 337.390625 L 114.152344 333.394531 L 114.5 332.613281 C 117.203125 327.25 120.300781 322.125 123.785156 317.238281 L 124.132812 316.804688 L 125 315.414062 L 128.734375 310.203125 L 129.167969 309.59375 L 130.210938 308.203125 L 130.816406 308.203125 L 130.992188 307.683594 C 132.988281 303.949219 136.71875 300.648438 139.5 297.519531 L 140.886719 295.957031 C 141.699219 294.914062 142.652344 293.957031 143.75 293.089844 C 144.675781 292.222656 145.488281 291.351562 146.183594 290.484375 L 148.179688 288.746094 L 148.699219 288.050781 C 149.277344 287.414062 149.972656 286.808594 150.78125 286.226562 L 151.304688 285.53125 C 152.054688 284.605469 152.925781 283.738281 153.90625 282.925781 L 154.515625 282.925781 L 154.777344 282.058594 L 156.164062 281.015625 C 157.4375 279.972656 158.652344 278.902344 159.8125 277.800781 C 162.058594 275.683594 164.429688 273.714844 166.929688 271.894531 C 168.144531 270.796875 169.386719 269.78125 170.660156 268.855469 L 171.183594 268.421875 L 171.703125 268.074219 L 173.09375 266.859375 C 173.960938 266.25 173.960938 266.25 174.480469 266.25 L 174.480469 265.640625 L 175.4375 264.773438 L 176.128906 264.425781 L 176.824219 263.90625 L 178.386719 262.777344 L 179.167969 262.167969 L 182.988281 259.300781 L 189.0625 254.785156 L 189.671875 254.261719 L 195.921875 249.921875 L 200.609375 246.707031 L 203.648438 244.707031 L 208.421875 241.496094 L 209.289062 240.886719 L 216.582031 236.195312 L 222.398438 232.546875 L 226.476562 230.027344 C 232.898438 226.035156 239.441406 222.183594 246.09375 218.476562 L 250.433594 215.957031 L 260.851562 210.222656 L 263.628906 208.746094 C 266.695312 207.011719 269.734375 205.390625 272.742188 203.882812 L 276.648438 201.886719 L 277.34375 201.453125 L 280.382812 199.886719 L 286.632812 196.761719 L 290.539062 194.761719 C 294.9375 192.445312 299.449219 190.277344 304.082031 188.25 L 307.8125 186.511719 L 312.847656 184.167969 L 315.710938 182.863281 L 316.234375 182.601562 L 320.140625 180.867188 C 322.800781 179.589844 325.492188 178.40625 328.210938 177.304688 L 330.554688 176.261719 L 334.808594 174.351562 L 338.890625 172.613281 C 339.988281 172.265625 341.03125 171.859375 342.015625 171.398438 L 348.785156 168.53125 L 352.953125 166.792969 C 355.917969 165.402344 358.957031 164.183594 362.066406 163.144531 C 363.976562 162.335938 365.914062 161.640625 367.882812 161.0625 L 378.296875 157.152344 C 380.035156 156.457031 381.769531 155.878906 383.507812 155.414062 L 386.804688 154.199219 C 393.75 151.59375 400.695312 149.277344 407.636719 147.25 L 412.847656 145.511719 L 421.527344 142.90625 L 428.210938 140.996094 L 430.554688 140.300781 C 431.945312 139.839844 433.332031 139.460938 434.722656 139.171875 C 436.980469 138.710938 439.175781 138.128906 441.320312 137.433594 C 449.132812 135.292969 457 133.382812 464.929688 131.703125 L 469.269531 130.746094 L 477.949219 128.835938 L 480.382812 128.402344 C 484.785156 127.457031 489.210938 126.648438 493.660156 125.96875 L 495.832031 125.535156 L 501.300781 124.667969 L 508.679688 123.449219 L 509.980469 123.277344 C 520.898438 121.632812 531.863281 120.476562 542.878906 119.800781 C 557.714844 118.699219 572.558594 118.554688 587.410156 119.367188 M 635.761719 145.511719 C 641.375 145.457031 646.871094 146.238281 652.253906 147.859375 L 652.863281 148.117188 C 659.355469 150.265625 665.203125 153.566406 670.398438 158.019531 L 671.179688 158.628906 L 672.742188 160.019531 L 672.742188 160.625 L 673.609375 160.886719 L 673.609375 161.496094 L 674.476562 161.757812 L 674.476562 162.363281 L 675.34375 162.625 L 677.253906 165.058594 C 680.726562 169.574219 683.476562 174.464844 685.5 179.738281 L 685.761719 180.605469 C 686.628906 182.832031 687.292969 185.121094 687.757812 187.46875 C 688.511719 191.695312 688.800781 195.980469 688.625 200.324219 L 688.625 200.929688 C 688.625 204.230469 688.164062 207.503906 687.238281 210.746094 L 686.976562 211.527344 C 685.878906 215.234375 684.429688 218.824219 682.636719 222.296875 L 682.203125 223.167969 C 680.929688 225.425781 679.511719 227.539062 677.949219 229.507812 L 677.339844 230.375 C 675.175781 233.0625 672.777344 235.519531 670.140625 237.746094 C 667.503906 239.96875 664.679688 241.921875 661.667969 243.605469 C 658.65625 245.285156 655.511719 246.667969 652.234375 247.742188 C 648.957031 248.820312 645.605469 249.574219 642.183594 250.007812 C 634.546875 250.875 626.734375 249.746094 619.527344 247.226562 L 618.921875 246.964844 C 614.003906 245.113281 609.460938 242.59375 605.292969 239.410156 L 604.511719 238.800781 C 600.847656 235.867188 597.664062 232.480469 594.964844 228.640625 L 594.355469 227.855469 C 592.230469 224.914062 590.496094 221.757812 589.148438 218.390625 C 587.574219 214.765625 586.472656 211 585.847656 207.097656 C 585.511719 205.207031 585.277344 203.304688 585.148438 201.390625 C 585.023438 199.476562 585 197.558594 585.082031 195.640625 C 585.167969 193.722656 585.355469 191.816406 585.648438 189.917969 C 585.945312 188.019531 586.339844 186.144531 586.84375 184.292969 C 587.34375 182.441406 587.945312 180.621094 588.648438 178.835938 C 589.351562 177.046875 590.148438 175.304688 591.042969 173.605469 C 591.9375 171.910156 592.921875 170.265625 594 168.675781 C 595.074219 167.085938 596.234375 165.5625 597.480469 164.101562 L 598 163.582031 C 601.011719 160.105469 604.425781 157.09375 608.246094 154.546875 L 608.679688 154.199219 C 616.953125 148.8125 625.980469 145.917969 635.761719 145.511719 M 517.621094 356.324219 L 518.226562 356.324219 C 518.402344 358.410156 517.878906 359.800781 517.1875 361.710938 C 516.375 363.621094 515.710938 365.589844 515.191406 367.617188 C 512.472656 376.894531 508.710938 385.722656 503.90625 394.109375 L 501.648438 398.019531 L 500.257812 400.535156 L 498.089844 404.273438 L 496.960938 406.355469 C 496.382812 407.339844 495.746094 408.238281 495.050781 409.050781 L 494.269531 410.4375 C 493.863281 411.191406 493.371094 411.914062 492.792969 412.609375 L 490.625 415.824219 L 487.671875 420.167969 L 486.371094 421.90625 C 483.535156 425.726562 480.613281 429.433594 477.601562 433.023438 L 473.609375 437.972656 L 473.089844 438.582031 L 472.480469 438.582031 L 472.308594 439.101562 L 471.007812 440.839844 L 468.75 443.097656 L 468.316406 443.621094 C 467.882812 444.054688 467.882812 444.054688 467.621094 444.664062 L 467.011719 444.664062 L 466.839844 445.183594 C 466.433594 445.878906 465.882812 446.488281 465.191406 447.007812 L 462.933594 449.441406 C 461.601562 450.945312 460.214844 452.421875 458.765625 453.871094 L 457.898438 454.738281 L 457.117188 455.433594 L 456.421875 456.128906 C 455.726562 456.824219 455.003906 457.429688 454.253906 457.953125 L 452.34375 459.949219 L 451.128906 461.164062 L 450.519531 461.164062 L 450.519531 461.773438 L 449.652344 462.640625 L 446.265625 465.507812 C 442.535156 468.984375 442.535156 468.984375 441.839844 468.984375 L 441.839844 469.589844 L 440.625 470.460938 L 436.890625 473.675781 C 430.957031 478.894531 424.707031 483.699219 418.140625 488.09375 L 415.363281 490.089844 C 412.179688 492.40625 408.855469 494.664062 405.382812 496.867188 L 400.519531 499.992188 L 394.359375 503.816406 C 389.496094 506.824219 384.519531 509.632812 379.425781 512.238281 L 376.300781 513.976562 C 371.25 516.894531 366.039062 519.5 360.675781 521.792969 C 357.121094 523.550781 353.503906 525.175781 349.828125 526.660156 C 336.476562 532.59375 322.730469 537.398438 308.59375 541.078125 L 306.25 541.6875 C 299.769531 543.480469 293.257812 545.015625 286.71875 546.289062 L 285.589844 546.550781 C 278.011719 547.882812 270.398438 548.980469 262.761719 549.851562 L 259.460938 550.199219 C 246.316406 551.617188 233.144531 551.878906 219.953125 550.988281 C 206.757812 550.101562 193.742188 548.070312 180.90625 544.898438 C 177.34375 544.03125 177.34375 544.03125 176.21875 543.421875 C 176.042969 542.035156 176.5625 541.339844 177.34375 540.210938 C 178.066406 539.660156 178.875 539.429688 179.777344 539.515625 L 185.765625 539.515625 C 199.851562 539.53125 213.859375 538.460938 227.777344 536.300781 L 230.035156 535.953125 C 242.710938 534.101562 255.238281 531.550781 267.621094 528.308594 L 269.964844 527.703125 C 277.324219 525.945312 284.585938 523.863281 291.753906 521.449219 C 294.359375 520.695312 296.90625 519.855469 299.394531 518.929688 L 302.171875 518.058594 L 302.863281 517.800781 L 308.421875 515.886719 C 311.3125 515.019531 314.121094 513.976562 316.839844 512.761719 L 319.445312 511.71875 L 328.386719 508.246094 L 337.933594 504.25 L 340.019531 503.378906 L 343.144531 502.078125 L 344.097656 501.644531 L 350.347656 498.863281 L 353.296875 497.472656 L 356.25 496.257812 C 357.695312 495.679688 359.144531 495.011719 360.589844 494.261719 C 361.921875 493.449219 363.28125 492.753906 364.671875 492.175781 C 369.367188 490.054688 373.96875 487.738281 378.472656 485.226562 C 382.984375 482.910156 387.441406 480.449219 391.839844 477.84375 L 397.917969 474.367188 L 402.257812 471.761719 C 403.585938 470.894531 404.949219 470.113281 406.335938 469.417969 C 408.652344 468.085938 410.851562 466.667969 412.933594 465.160156 L 416.667969 462.730469 L 422.480469 458.90625 L 424.824219 457.34375 C 428.007812 455.203125 431.105469 453 434.113281 450.742188 L 436.371094 449.09375 L 437.066406 448.570312 L 438.453125 447.527344 L 441.492188 445.269531 L 442.011719 444.921875 L 443.230469 443.96875 C 443.835938 443.53125 443.835938 443.53125 444.445312 443.53125 L 444.445312 442.925781 L 445.917969 441.796875 L 446.789062 441.1875 C 447.425781 440.722656 448.089844 440.347656 448.785156 440.058594 L 448.785156 439.449219 L 449.824219 438.582031 C 452.128906 436.878906 454.355469 435.085938 456.511719 433.195312 C 457.726562 432.269531 458.910156 431.226562 460.070312 430.070312 C 461.195312 429.027344 461.195312 429.027344 461.804688 429.027344 L 461.804688 428.417969 L 462.847656 427.550781 L 465.277344 425.292969 L 467.535156 423.121094 L 470.746094 420.082031 L 472.828125 418.34375 L 473.351562 417.5625 C 473.957031 416.867188 473.957031 416.867188 474.652344 416.34375 L 476.214844 414.78125 L 476.820312 413.914062 L 477.429688 413.914062 L 477.691406 413.480469 L 478.90625 411.828125 L 479.511719 411.308594 L 481.25 409.570312 L 481.855469 408.960938 L 485.242188 405.140625 C 490.796875 398.710938 490.796875 398.710938 491.320312 397.757812 L 491.925781 397.757812 L 492.101562 397.234375 L 493.488281 395.324219 C 496.382812 391.910156 499.074219 388.316406 501.5625 384.554688 L 503.039062 382.46875 L 506.597656 376.910156 L 507.726562 375.171875 L 509.199219 372.566406 L 510.9375 369.960938 C 512.09375 368.222656 513.078125 366.398438 513.886719 364.488281 L 514.757812 362.753906 L 517.1875 357.539062 Z M 154.515625 503.121094 L 154.515625 503.726562 L 155.125 503.902344 C 156.28125 504.539062 157.265625 505.347656 158.074219 506.332031 L 158.683594 506.855469 C 159.984375 508.246094 159.984375 508.246094 159.984375 508.941406 L 160.59375 508.941406 C 161.621094 510.425781 162.5 511.996094 163.234375 513.652344 C 163.964844 515.304688 164.535156 517.015625 164.945312 518.777344 C 165.351562 520.539062 165.59375 522.324219 165.664062 524.132812 C 165.734375 525.9375 165.636719 527.738281 165.367188 529.527344 C 164.238281 536.214844 160.15625 542.640625 154.863281 546.722656 C 148.785156 550.980469 141.667969 552.804688 134.289062 551.761719 C 128.964844 550.777344 124.222656 548.460938 120.054688 544.8125 L 119.535156 544.378906 C 118.398438 543.273438 117.371094 542.070312 116.453125 540.777344 C 115.535156 539.480469 114.742188 538.113281 114.074219 536.671875 C 113.40625 535.234375 112.875 533.746094 112.480469 532.207031 C 112.085938 530.671875 111.832031 529.109375 111.722656 527.527344 C 111.597656 525.601562 111.667969 523.679688 111.933594 521.769531 C 112.195312 519.855469 112.648438 517.988281 113.292969 516.167969 C 113.933594 514.347656 114.75 512.609375 115.742188 510.953125 C 116.734375 509.296875 117.882812 507.757812 119.1875 506.332031 L 119.792969 506.332031 L 120.054688 505.464844 L 120.660156 505.464844 L 120.921875 504.597656 L 124.394531 502.25 L 125.175781 501.816406 C 133.855469 496.257812 146.269531 497.125 154.515625 503.121094 " fill-opacity="1" fill-rule="evenodd"/><path fill="#111111" d="M 532.203125 201.710938 L 532.8125 201.710938 C 542.523438 201.671875 552.214844 202.074219 561.890625 202.929688 L 564.234375 203.1875 L 564.929688 203.1875 L 569.441406 204.058594 C 570.078125 206.027344 570.511719 208.054688 570.746094 210.136719 C 571.226562 213.457031 572.09375 216.671875 573.347656 219.777344 C 574.929688 224.417969 577.011719 228.820312 579.597656 232.980469 L 580.121094 233.9375 C 582.59375 237.921875 585.457031 241.597656 588.714844 244.96875 L 589.929688 246.359375 C 592.011719 248.5 594.238281 250.414062 596.613281 252.089844 L 597.394531 252.699219 C 601.1875 255.488281 605.222656 257.855469 609.507812 259.800781 C 613.792969 261.75 618.234375 263.230469 622.828125 264.253906 C 624.824219 264.773438 625.867188 265.730469 627.167969 267.292969 L 629.339844 269.203125 L 630.292969 270.246094 C 630.988281 271.113281 631.710938 271.894531 632.464844 272.589844 C 633.621094 273.75 634.664062 274.9375 635.589844 276.152344 L 636.890625 277.800781 C 638.625 279.769531 640.160156 281.828125 641.492188 283.96875 L 641.925781 284.578125 C 645.742188 290.363281 648.859375 296.503906 651.277344 303 C 653.695312 309.496094 655.351562 316.183594 656.246094 323.058594 L 656.335938 323.664062 C 657.984375 335.390625 656.59375 347.464844 654.25 358.929688 L 653.992188 359.972656 C 652.128906 368.703125 649.40625 377.15625 645.832031 385.335938 L 645.136719 386.8125 C 643.746094 390.113281 642.242188 393.386719 640.621094 396.628906 L 640.363281 397.148438 L 638.277344 400.972656 L 637.933594 401.667969 L 634.199219 408.179688 L 633.851562 408.703125 C 630.84375 413.914062 627.601562 418.953125 624.128906 423.816406 L 623.609375 424.511719 C 620.042969 429.734375 616.167969 434.714844 611.976562 439.449219 L 608.15625 444.140625 L 604.6875 448.222656 L 602.6875 450.394531 C 601.359375 451.667969 600.113281 453 598.957031 454.390625 L 596.351562 456.996094 C 595.746094 457.605469 595.746094 457.605469 595.222656 458.472656 L 594.617188 458.472656 L 594.441406 458.90625 C 593.863281 459.835938 593.167969 460.675781 592.359375 461.425781 L 591.839844 461.859375 L 590.796875 462.902344 L 589.234375 464.554688 L 588.191406 465.507812 L 587.671875 466.03125 C 586.542969 467.160156 586.542969 467.160156 585.9375 467.160156 L 585.675781 468.027344 L 585.066406 468.027344 L 584.808594 468.898438 L 584.199219 468.898438 L 583.9375 469.765625 L 583.070312 470.632812 L 579.425781 473.847656 C 575.257812 477.757812 575.257812 477.757812 574.304688 478.191406 C 573.78125 478.453125 573.78125 478.453125 573.4375 479.320312 L 572.132812 480.449219 L 571.265625 481.058594 C 570.746094 481.578125 570.136719 481.953125 569.441406 482.1875 L 569.441406 482.792969 L 568.488281 483.664062 L 567.878906 484.183594 C 567.445312 484.53125 567.445312 484.53125 566.839844 484.53125 L 566.578125 485.398438 L 565.1875 486.355469 C 564.261719 486.933594 563.453125 487.570312 562.757812 488.265625 L 562.238281 488.875 L 561.628906 488.875 L 561.628906 489.484375 L 559.894531 490.785156 L 558.941406 491.566406 L 558.332031 492 L 556.25 493.652344 L 552.34375 496.691406 L 548.871094 499.386719 L 548.4375 499.820312 L 545.832031 501.902344 C 542.703125 504.417969 539.492188 506.820312 536.195312 509.113281 L 531.160156 512.585938 L 529.339844 513.890625 L 528.816406 514.324219 L 527.777344 515.105469 C 525.171875 516.929688 525.171875 516.929688 524.304688 516.929688 L 524.304688 517.539062 L 522.914062 518.40625 L 519.53125 520.664062 L 515.191406 523.621094 L 512.066406 525.617188 L 506.597656 529.089844 L 502.082031 531.871094 C 496.007812 535.691406 489.871094 539.339844 483.679688 542.816406 L 482.464844 543.511719 L 481.945312 543.859375 L 478.296875 545.941406 L 474.390625 548.113281 L 472.046875 549.503906 L 467.621094 551.847656 L 463.019531 554.195312 C 454.152344 558.914062 445.152344 563.375 436.023438 567.570312 L 432.292969 569.308594 C 420.78125 574.761719 409.089844 579.800781 397.222656 584.421875 L 394.359375 585.550781 L 379.078125 591.371094 L 378.386719 591.632812 L 361.023438 597.710938 L 358.160156 598.582031 L 357.378906 598.839844 L 355.988281 599.363281 L 349.132812 601.535156 L 346.789062 602.316406 C 333.941406 606.398438 333.941406 606.398438 327.777344 607.960938 L 325.175781 608.65625 C 318.402344 610.566406 311.574219 612.332031 304.6875 613.953125 L 303.992188 614.128906 C 297.800781 615.632812 291.636719 616.996094 285.503906 618.210938 L 280.816406 619.167969 C 276.128906 620.152344 271.441406 621.019531 266.753906 621.773438 L 266.148438 621.859375 C 260.128906 622.902344 254.140625 623.769531 248.179688 624.464844 L 244.878906 624.984375 C 239.761719 625.839844 234.609375 626.417969 229.429688 626.722656 L 221.617188 627.417969 L 220.921875 627.417969 L 209.722656 628.199219 L 209.117188 628.199219 L 204.253906 628.460938 L 203.386719 628.460938 C 197.890625 628.75 192.421875 628.835938 186.980469 628.722656 L 185.765625 628.722656 C 179.976562 628.722656 174.191406 628.632812 168.40625 628.460938 L 167.710938 628.460938 C 148.894531 627.65625 130.320312 625.109375 111.980469 620.816406 L 110.070312 620.382812 L 109.03125 620.207031 L 108.160156 620.035156 C 107.410156 619.804688 106.832031 619.3125 106.425781 618.558594 L 107.292969 618.558594 C 117.941406 619.019531 128.589844 618.992188 139.238281 618.472656 L 140.367188 618.472656 C 144.1875 618.296875 147.949219 618.007812 151.652344 617.601562 C 153.269531 617.371094 154.863281 617.226562 156.425781 617.167969 C 161.75 616.707031 167.042969 616.066406 172.308594 615.257812 L 179.863281 614.214844 C 182.8125 613.867188 185.738281 613.40625 188.628906 612.824219 L 191.234375 612.21875 L 193.058594 611.871094 L 198.265625 610.914062 L 202.519531 610.046875 L 203.472656 609.871094 L 214.0625 607.527344 C 215.453125 607.296875 216.785156 607.003906 218.058594 606.660156 L 222.832031 605.441406 L 234.375 602.75 L 236.199219 602.226562 C 241.234375 600.839844 246.179688 599.390625 251.042969 597.886719 L 254.949219 596.757812 C 260.042969 595.25 265.105469 593.628906 270.140625 591.890625 L 274.132812 590.503906 C 285.453125 586.757812 296.652344 582.675781 307.726562 578.253906 C 313.6875 575.9375 319.617188 573.507812 325.519531 570.957031 C 325.753906 570.957031 325.984375 570.871094 326.214844 570.699219 L 330.121094 568.960938 L 331.335938 568.527344 L 337.675781 565.746094 L 342.359375 563.574219 L 343.144531 563.226562 L 346.265625 561.839844 C 350.800781 559.855469 355.257812 557.714844 359.636719 555.410156 L 360.503906 554.976562 L 365.277344 552.71875 C 368.34375 551.328125 371.296875 549.851562 374.132812 548.289062 L 378.90625 545.855469 L 385.242188 542.640625 L 386.546875 541.945312 C 389.699219 540.375 392.796875 538.695312 395.832031 536.910156 L 400.605469 534.214844 L 406.074219 531.175781 L 413.019531 527.179688 L 413.542969 526.921875 C 421.179688 522.289062 428.789062 517.566406 436.371094 512.761719 L 437.847656 511.804688 L 438.886719 511.199219 L 446.613281 505.988281 L 448.957031 504.421875 L 454.425781 500.6875 L 459.113281 497.386719 L 459.808594 496.867188 L 461.285156 495.910156 C 462.269531 495.273438 463.195312 494.578125 464.0625 493.824219 C 464.667969 493.390625 464.667969 493.390625 465.277344 493.390625 L 465.277344 492.785156 L 466.664062 491.742188 L 467.535156 491.132812 L 468.402344 490.523438 C 471.179688 488.5 473.871094 486.441406 476.476562 484.359375 L 478.472656 482.792969 L 479.773438 481.839844 L 480.292969 481.40625 L 481.683594 480.277344 L 482.203125 479.839844 L 486.542969 476.28125 C 487.238281 475.757812 487.238281 475.757812 487.847656 475.757812 L 487.847656 475.152344 L 490.191406 473.238281 L 493.054688 470.980469 L 494.355469 469.851562 C 495.050781 469.101562 495.804688 468.40625 496.613281 467.769531 C 497.769531 466.839844 498.871094 465.855469 499.910156 464.816406 C 500.257812 464.46875 500.257812 464.46875 500.867188 464.46875 L 500.867188 463.859375 L 501.734375 462.992188 L 502.429688 462.46875 L 503.644531 461.425781 C 506.015625 459.398438 508.332031 457.257812 510.589844 455 C 511.515625 454.015625 512.527344 453.117188 513.628906 452.304688 L 514.148438 451.523438 C 514.726562 450.886719 515.421875 450.28125 516.230469 449.699219 L 517.359375 448.222656 L 519.789062 445.792969 L 521.351562 444.226562 L 522.566406 443.097656 L 523.089844 442.492188 C 524.710938 440.925781 526.214844 439.277344 527.601562 437.539062 L 528.035156 436.933594 L 528.644531 436.933594 L 528.816406 436.410156 C 529.6875 435.078125 530.699219 433.921875 531.855469 432.9375 C 533.980469 430.617188 536.003906 428.214844 537.933594 425.726562 C 540.769531 422.253906 543.515625 418.71875 546.179688 415.128906 L 547.566406 413.394531 C 549.535156 410.785156 551.386719 408.125 553.125 405.402344 L 553.992188 404.011719 C 555.496094 401.8125 556.941406 399.582031 558.332031 397.324219 L 558.9375 396.195312 L 559.894531 394.628906 L 561.542969 391.9375 C 563.164062 389.273438 564.640625 386.550781 565.96875 383.773438 L 567.792969 380.296875 C 568.71875 378.675781 569.53125 376.996094 570.222656 375.261719 L 571.527344 372.394531 C 576.734375 361.277344 580.292969 349.695312 582.203125 337.648438 L 582.289062 336.695312 C 583.875 327.519531 583.730469 318.367188 581.855469 309.246094 L 581.683594 308.378906 C 580.722656 303.300781 579.246094 298.378906 577.253906 293.613281 L 576.996094 293.089844 C 574.15625 286.417969 570.363281 280.335938 565.625 274.847656 C 564.929688 274.269531 564.464844 273.574219 564.234375 272.765625 L 563.367188 272.503906 L 562.5 271.460938 C 561.574219 270.363281 560.558594 269.378906 559.460938 268.507812 L 559.027344 268.160156 L 559.027344 267.554688 L 558.59375 267.378906 C 557.667969 266.800781 556.828125 266.164062 556.074219 265.46875 C 554.425781 264.078125 554.425781 264.078125 553.816406 263.730469 L 553.816406 263.210938 L 553.210938 262.949219 C 552.285156 262.601562 551.445312 262.109375 550.691406 261.472656 C 532.984375 248.964844 510.9375 242.972656 489.582031 240.625 L 488.628906 240.539062 L 485.328125 240.191406 L 484.375 240.105469 L 481.597656 239.84375 L 480.121094 239.671875 C 473.929688 239.207031 467.707031 239.003906 461.457031 239.0625 L 458.851562 239.0625 C 450.347656 239.003906 441.867188 239.324219 433.417969 240.019531 L 432.550781 240.105469 C 422.65625 241.089844 412.761719 242.421875 402.863281 244.101562 L 401.996094 244.273438 C 397.042969 245.046875 392.121094 246 387.238281 247.140625 C 377.980469 249.109375 368.722656 251.484375 359.460938 254.261719 C 358.535156 254.609375 357.550781 254.898438 356.511719 255.132812 L 351.734375 256.78125 L 348.4375 257.738281 C 342.1875 259.589844 335.996094 261.734375 329.859375 264.164062 L 323.957031 266.335938 L 323.265625 266.511719 L 322.65625 266.769531 L 320.921875 267.554688 L 320.3125 266.945312 L 322.050781 265.640625 L 322.65625 265.292969 C 325.492188 263.324219 328.386719 261.414062 331.335938 259.5625 L 332.292969 258.953125 L 339.234375 254.785156 L 340.105469 254.261719 L 345.050781 251.484375 L 347.484375 250.09375 L 354.425781 246.445312 L 357.378906 244.96875 L 358.421875 244.449219 L 361.109375 242.972656 C 363.542969 241.699219 366.03125 240.511719 368.578125 239.410156 L 369.792969 238.800781 L 375.609375 236.195312 C 380.292969 234.113281 385.097656 232.085938 390.015625 230.117188 L 391.925781 229.421875 C 406.800781 223.476562 421.992188 218.496094 437.5 214.480469 L 439.929688 213.871094 L 450.953125 211.265625 L 451.910156 211.007812 C 471.457031 206.636719 491.21875 203.742188 511.195312 202.320312 L 516.492188 202.058594 L 517.1875 201.972656 C 522.164062 201.742188 527.167969 201.652344 532.203125 201.710938 M 694.441406 233.503906 C 695.484375 233.675781 696.4375 234.082031 697.304688 234.71875 L 697.914062 235.152344 C 700.519531 236.890625 703.035156 238.742188 705.464844 240.710938 C 705.988281 241.148438 705.988281 241.148438 706.59375 241.40625 L 706.59375 242.015625 L 707.027344 242.1875 C 707.839844 242.710938 708.621094 243.320312 709.371094 244.011719 L 711.800781 246.011719 L 711.800781 246.621094 L 712.671875 246.878906 L 712.671875 247.488281 L 713.539062 247.75 L 713.539062 248.355469 L 714.40625 248.617188 L 715.621094 250.09375 L 716.316406 250.960938 L 717.011719 251.832031 L 718.3125 253.480469 C 721.207031 257.128906 723.753906 261.007812 725.953125 265.121094 L 726.300781 265.730469 C 728.675781 270.445312 730.5 275.367188 731.769531 280.496094 L 732.027344 281.363281 C 733.1875 285.9375 733.765625 290.570312 733.765625 295.261719 L 733.765625 296.042969 C 733.9375 301.890625 733.476562 307.710938 732.375 313.503906 L 732.113281 314.457031 L 731.59375 316.976562 L 731.160156 319.148438 C 730.582031 321.929688 729.828125 324.679688 728.902344 327.398438 L 728.46875 328.527344 L 725.429688 336.695312 L 724.996094 337.5625 C 724.359375 339.242188 723.636719 340.835938 722.828125 342.339844 L 721.960938 344.339844 C 720.570312 347.8125 718.863281 351.085938 716.835938 354.152344 L 715.710938 356.410156 L 713.277344 360.753906 L 712.496094 361.972656 L 711.628906 363.273438 C 711.628906 363.503906 711.511719 363.738281 711.28125 363.96875 L 708.589844 368.050781 L 705.898438 371.960938 C 701.992188 377.691406 701.992188 377.691406 700.257812 379.863281 C 700.257812 380.039062 700.140625 380.210938 699.910156 380.386719 L 698.433594 382.296875 L 692.878906 389.246094 L 692.359375 389.765625 L 691.925781 390.289062 C 691.578125 390.691406 691.289062 391.15625 691.054688 391.675781 L 690.363281 391.675781 L 690.1875 392.113281 C 689.609375 393.039062 688.972656 393.90625 688.277344 394.71875 L 687.84375 395.238281 C 684.707031 398.867188 681.4375 402.367188 678.035156 405.75 C 677.339844 406.445312 677.339844 406.445312 676.820312 407.3125 L 676.210938 407.3125 L 675.953125 407.832031 C 675.664062 408.46875 675.257812 409.019531 674.738281 409.484375 L 674.128906 410.003906 L 673.609375 410.613281 L 672.914062 411.222656 L 671.699219 412.523438 L 669.703125 414.523438 L 668.398438 415.738281 L 667.792969 416.34375 L 667.273438 416.867188 L 666.75 417.386719 C 666.402344 417.734375 666.402344 417.734375 665.882812 417.734375 L 665.882812 418.34375 L 664.40625 419.472656 L 660.414062 423.121094 C 657.808594 425.726562 657.808594 425.726562 656.246094 426.421875 L 656.246094 427.03125 L 654.859375 428.160156 L 651.472656 431.023438 L 647.480469 434.5 L 645.398438 436.324219 C 643.835938 437.769531 642.128906 439.101562 640.277344 440.320312 L 636.195312 443.707031 L 632.808594 446.398438 L 632.203125 446.921875 L 631.507812 447.441406 L 630.988281 447.875 C 630.464844 448.136719 630.464844 448.136719 629.597656 448.136719 C 630.09375 447.085938 630.789062 446.1875 631.683594 445.445312 L 632.117188 445.007812 L 634.894531 442.230469 L 636.195312 441.015625 C 636.890625 440.320312 636.890625 440.320312 637.410156 439.449219 L 638.019531 439.449219 L 638.277344 438.582031 L 638.886719 438.582031 L 639.148438 438.0625 L 640.277344 436.410156 L 640.796875 435.890625 L 641.316406 435.28125 L 642.273438 434.152344 L 642.792969 433.632812 L 643.921875 432.242188 L 644.355469 431.632812 L 644.964844 431.632812 L 645.136719 431.113281 C 645.597656 430.417969 646.121094 429.78125 646.699219 429.199219 L 649.996094 425.292969 L 653.035156 421.816406 C 653.730469 421.007812 654.339844 420.195312 654.859375 419.386719 L 655.378906 418.605469 L 655.988281 418.605469 L 656.160156 418.167969 C 656.625 417.300781 657.203125 416.492188 657.898438 415.738281 L 658.679688 414.695312 L 659.027344 414.175781 L 660.675781 412.003906 L 662.929688 409.050781 C 665.652344 405.574219 668.253906 402.011719 670.742188 398.367188 L 671.089844 397.757812 L 677.863281 387.335938 L 682.203125 380.210938 L 683.589844 377.78125 L 686.367188 372.828125 L 686.628906 372.308594 L 690.96875 363.882812 L 691.835938 362.230469 C 692.761719 360.492188 693.542969 358.757812 694.179688 357.019531 L 695.136719 354.933594 C 695.832031 353.601562 696.410156 352.214844 696.871094 350.765625 L 698.347656 347.292969 C 701.300781 339.996094 703.789062 332.582031 705.8125 325.054688 L 706.332031 323.492188 C 707.261719 319.902344 708.011719 316.28125 708.589844 312.632812 L 708.765625 311.765625 C 709.757812 306.738281 710.375 301.667969 710.621094 296.546875 C 710.867188 291.429688 710.738281 286.320312 710.230469 281.222656 C 709.722656 276.125 708.84375 271.089844 707.59375 266.121094 C 706.34375 261.152344 704.738281 256.300781 702.773438 251.570312 C 701.558594 248.441406 700.027344 245.433594 698.175781 242.535156 L 697.394531 241.234375 L 695.050781 237.5 C 695.050781 237.324219 694.933594 237.152344 694.703125 236.976562 L 693.574219 235.328125 L 693.574219 233.851562 C 693.832031 233.589844 693.832031 233.589844 694.441406 233.503906 " fill-opacity="1" fill-rule="evenodd"/><path fill="#111111" d="M 360.503906 284.839844 L 361.371094 285.011719 C 372.011719 286.601562 382.140625 289.816406 391.753906 294.652344 L 393.574219 295.523438 C 396.679688 297.050781 399.660156 298.785156 402.515625 300.734375 L 403.039062 301.167969 C 406.277344 303.253906 409.375 305.480469 412.324219 307.855469 L 413.542969 308.726562 L 414.0625 309.160156 L 414.0625 309.765625 L 414.496094 309.941406 C 415.363281 310.519531 416.175781 311.1875 416.925781 311.9375 C 417.851562 312.980469 418.835938 313.9375 419.878906 314.804688 C 421.265625 316.078125 422.511719 317.382812 423.609375 318.714844 L 424.914062 320.105469 C 427.863281 323.578125 430.554688 327.226562 432.984375 331.046875 L 434.199219 332.785156 C 435.539062 334.796875 436.753906 336.882812 437.847656 339.039062 C 442.59375 348.132812 445.949219 357.773438 447.914062 367.964844 L 448.089844 368.917969 C 449.609375 376.847656 450.214844 384.84375 449.90625 392.910156 C 449.597656 400.976562 448.386719 408.90625 446.265625 416.691406 L 445.746094 418.863281 L 445.570312 419.472656 C 444.964844 421.558594 444.269531 423.382812 442.535156 424.683594 L 441.667969 425.292969 L 440.972656 425.8125 L 439.757812 426.855469 L 437.5 428.59375 L 433.160156 431.980469 C 429.628906 434.816406 425.953125 437.511719 422.136719 440.058594 L 420.484375 441.1875 L 418.75 442.402344 L 416.320312 444.054688 L 410.328125 448.136719 L 408.417969 449.441406 C 404.191406 452.316406 399.851562 455.007812 395.398438 457.519531 C 390.363281 460.730469 390.363281 460.730469 388.28125 461.859375 L 385.675781 463.25 L 378.90625 467.074219 L 375.433594 468.984375 L 371.09375 471.242188 L 366.492188 473.585938 L 359.546875 477.0625 L 358.507812 477.667969 L 355.382812 479.058594 L 352.429688 480.449219 L 348.785156 482.011719 L 346.613281 483.054688 C 344.738281 484.066406 342.800781 484.933594 340.796875 485.660156 L 336.457031 487.398438 L 326.476562 491.308594 L 325.085938 491.828125 L 321.09375 493.304688 L 317.882812 494.519531 C 314.671875 495.738281 312.5 496.257812 309.289062 494.953125 L 307.464844 494.347656 L 304.167969 493.21875 L 302.257812 492.609375 C 292.007812 488.878906 282.574219 483.667969 273.960938 476.976562 C 273.554688 476.570312 273.089844 476.222656 272.570312 475.933594 L 272.570312 475.324219 L 272.050781 475.152344 C 271.296875 474.6875 270.601562 474.136719 269.964844 473.5 L 267.882812 471.675781 L 267.363281 471.328125 L 267.363281 470.722656 L 266.839844 470.460938 C 266.261719 470.171875 265.742188 469.792969 265.277344 469.332031 L 264.757812 468.808594 L 263.714844 467.765625 C 262.441406 466.4375 261.257812 465.074219 260.15625 463.683594 L 258.246094 461.511719 C 255.066406 457.691406 252.230469 453.636719 249.742188 449.351562 L 249.304688 448.65625 C 244.804688 441.144531 241.300781 433.1875 238.804688 424.789062 C 236.304688 416.394531 234.886719 407.816406 234.550781 399.058594 L 234.464844 398.453125 C 234.171875 391.445312 234.636719 384.46875 235.851562 377.519531 L 235.9375 376.648438 C 237.558594 366.863281 240.511719 357.511719 244.792969 348.59375 L 245.660156 346.683594 C 249.015625 339.328125 253.269531 332.523438 258.421875 326.269531 L 258.769531 325.835938 L 260.503906 323.664062 L 261.546875 322.1875 L 262.152344 322.1875 L 262.414062 321.667969 C 263.089844 320.492188 263.929688 319.453125 264.929688 318.539062 L 268.230469 315.238281 L 271.960938 311.765625 L 272.570312 311.765625 L 272.832031 310.898438 L 274.566406 309.507812 L 275.085938 309.160156 L 276.214844 308.289062 L 278.386719 306.554688 C 281.046875 304.46875 283.824219 302.527344 286.71875 300.734375 L 287.933594 300.039062 C 290.539062 298.476562 293.230469 296.96875 296.007812 295.523438 L 297.570312 294.742188 C 299.074219 293.929688 300.695312 293.234375 302.429688 292.65625 L 304.515625 291.785156 L 308.421875 290.222656 L 309.113281 289.964844 C 312.875 288.574219 316.695312 287.445312 320.574219 286.574219 L 321.527344 286.402344 C 324.074219 285.824219 326.59375 285.332031 329.082031 284.925781 L 330.644531 284.75 C 340.277344 283.1875 350.867188 283.363281 360.503906 284.839844 M 75.785156 395.414062 L 76.390625 395.757812 L 75.957031 396.28125 L 75.4375 396.976562 L 74.914062 397.671875 L 73.875 398.972656 L 73.527344 399.496094 L 72.917969 399.496094 L 72.660156 400.015625 C 72.3125 400.652344 71.847656 401.261719 71.269531 401.839844 C 69.417969 403.925781 67.710938 406.125 66.148438 408.441406 L 65.019531 409.917969 C 62.472656 413.449219 60.101562 417.128906 57.902344 420.949219 L 57.46875 421.644531 C 55.382812 425.003906 53.503906 428.417969 51.824219 431.894531 L 51.476562 432.589844 L 50.351562 435.109375 L 48.789062 438.234375 C 48.035156 439.683594 47.371094 441.1875 46.789062 442.75 L 46.445312 443.621094 C 44.597656 448.074219 43.085938 452.636719 41.898438 457.308594 C 40.714844 461.980469 39.875 466.710938 39.375 471.507812 C 38.875 476.300781 38.722656 481.105469 38.917969 485.921875 C 39.113281 490.738281 39.65625 495.515625 40.542969 500.253906 L 40.714844 501.207031 L 41.410156 503.726562 L 41.496094 504.335938 C 44.96875 517.363281 52.257812 530.828125 62.15625 540.121094 C 62.503906 540.46875 62.503906 540.46875 62.503906 541.078125 L 63.109375 541.078125 L 63.976562 542.121094 C 64.960938 543.21875 66.03125 544.261719 67.191406 545.246094 L 67.710938 545.683594 L 67.710938 546.289062 L 68.230469 546.550781 C 68.867188 546.898438 69.476562 547.359375 70.054688 547.941406 C 72.136719 549.792969 74.335938 551.5 76.652344 553.066406 L 78.128906 554.195312 C 82.0625 557.03125 86.113281 559.609375 90.28125 561.925781 L 91.234375 562.445312 C 103.511719 568.957031 116.417969 573.792969 129.949219 576.953125 L 130.472656 577.125 C 136.375 578.515625 142.335938 579.585938 148.351562 580.339844 L 149.222656 580.511719 L 150.871094 580.6875 L 151.566406 580.773438 L 152.257812 580.859375 C 152.78125 581.035156 152.78125 581.035156 153.648438 581.640625 C 152.722656 581.988281 151.738281 582.105469 150.695312 581.988281 L 146.617188 581.988281 C 119.535156 581.902344 93.058594 577.992188 49.480469 555.582031 L 48.960938 555.238281 C 46.644531 553.5 44.449219 551.617188 42.363281 549.589844 L 40.800781 548.027344 C 38.160156 545.699219 35.785156 543.121094 33.683594 540.296875 L 31.945312 538.125 C 30.039062 535.808594 28.417969 533.347656 27.085938 530.742188 L 25.695312 528.050781 C 24.019531 524.839844 22.605469 521.523438 21.445312 518.09375 C 20.289062 514.664062 19.402344 511.164062 18.792969 507.59375 C 18.179688 504.027344 17.847656 500.433594 17.800781 496.8125 C 17.75 493.195312 17.980469 489.59375 18.492188 486.007812 L 18.578125 485.226562 C 19.332031 479.089844 20.777344 473.066406 22.917969 467.160156 L 23.09375 466.464844 L 23.789062 464.554688 L 23.960938 463.945312 C 24.425781 462.554688 25.003906 461.195312 25.695312 459.863281 L 26.738281 457.34375 L 27.171875 456.476562 L 27.867188 454.824219 C 28.5625 453.085938 29.402344 451.410156 30.382812 449.789062 L 30.992188 448.65625 L 33.597656 443.96875 C 35.058594 441.097656 36.796875 438.40625 38.804688 435.890625 C 41.480469 431.644531 44.492188 427.648438 47.832031 423.902344 C 50.148438 421.066406 52.519531 418.316406 54.949219 415.652344 L 55.730469 414.78125 L 62.761719 407.484375 L 64.757812 405.488281 L 66.0625 404.273438 L 66.582031 403.664062 C 68.261719 402.042969 69.96875 400.507812 71.703125 399.058594 L 73.441406 397.496094 Z M 75.785156 395.414062 " fill-opacity="1" fill-rule="evenodd"/></svg>